<?xml version="1.0" encoding="UTF-8" standalone="no"?>
<svg
   xmlns:dc="http://purl.org/dc/elements/1.1/"
   xmlns:cc="http://creativecommons.org/ns#"
   xmlns:rdf="http://www.w3.org/1999/02/22-rdf-syntax-ns#"
   xmlns:svg="http://www.w3.org/2000/svg"
   xmlns="http://www.w3.org/2000/svg"
   xmlns:sodipodi="http://sodipodi.sourceforge.net/DTD/sodipodi-0.dtd"
   xmlns:inkscape="http://www.inkscape.org/namespaces/inkscape"
   id="svg19730"
   version="1.1"
   viewBox="0 0 53.761387 11.733632"
   height="44.347588"
   width="203.19264"
   sodipodi:docname="ameta-logo-hvit.svg"
   inkscape:version="0.92.5 (2060ec1f9f, 2020-04-08)">
  <sodipodi:namedview
     pagecolor="#ffffff"
     bordercolor="#666666"
     borderopacity="1"
     objecttolerance="10"
     gridtolerance="10"
     guidetolerance="10"
     inkscape:pageopacity="0"
     inkscape:pageshadow="2"
     inkscape:window-width="1711"
     inkscape:window-height="1140"
     id="namedview16"
     showgrid="false"
     fit-margin-top="0"
     fit-margin-left="0"
     fit-margin-right="0"
     fit-margin-bottom="0"
     units="px"
     inkscape:zoom="0.84096521"
     inkscape:cx="286.85691"
     inkscape:cy="-134.28697"
     inkscape:window-x="2368"
     inkscape:window-y="319"
     inkscape:window-maximized="0"
     inkscape:current-layer="svg19730" />
  <defs
     id="defs19724" />
  <metadata
     id="metadata19727">
    <rdf:RDF>
      <cc:Work
         rdf:about="">
        <dc:format>image/svg+xml</dc:format>
        <dc:type
           rdf:resource="http://purl.org/dc/dcmitype/StillImage" />
        <dc:title></dc:title>
      </cc:Work>
    </rdf:RDF>
  </metadata>
  <g
     id="layer1"
     transform="translate(-1.9588884,-0.65848165)">
    <g
       style="display:inline"
       transform="matrix(0.35277777,0,0,-0.35277777,6.8704048,10.082982)"
       id="g6925">
      <path
         id="path6927"
         style="fill:#ffffff;fill-opacity:1;fill-rule:nonzero;stroke:none"
         d="m 0,0 c -4.118,-0.002 -7.202,3.127 -7.155,7.262 0.047,4.08 3.07,7.121 7.102,7.143 C 4.124,14.429 7.141,11.423 7.154,7.224 7.167,3.014 4.184,0.002 0,0 m 0.935,21.042 c -7.136,0.413 -13.446,-4.381 -14.621,-11.106 -1.283,-7.339 2.754,-14.243 9.733,-15.94 3.759,-0.914 7.665,-0.99 10.626,2.343 0.004,0.004 0.008,0.009 0.012,0.014 0.002,10e-4 0.002,0.002 0.003,0.003 0.019,0.021 0.038,0.041 0.057,0.062 0.026,0.03 0.094,0.024 0.179,0.012 0.065,-0.009 0.138,-0.021 0.214,-0.025 l 0.365,-2.29 h 6.419 c 0,4.764 0.131,9.387 -0.03,13.999 C 13.649,15.073 7.97,20.636 0.935,21.042"
         inkscape:connector-curvature="0" />
    </g>
    <g
       style="display:inline"
       transform="matrix(0.35277777,0,0,-0.35277777,35.811453,5.799522)"
       id="g6929">
      <path
         id="path6931"
         style="fill:#ffffff;fill-opacity:1;fill-rule:nonzero;stroke:none"
         d="m 0,0 c 0.218,-0.343 0.408,-0.714 0.568,-1.113 0.16,-0.399 0.289,-0.824 0.386,-1.276 h -12.909 c 10e-4,0.153 0.01,0.304 0.027,0.453 0.017,0.149 0.042,0.297 0.073,0.442 0.013,0.059 0.028,0.117 0.043,0.175 0.034,0.132 0.074,0.26 0.12,0.388 0.137,0.382 0.327,0.745 0.562,1.087 0.13,0.189 0.27,0.374 0.427,0.548 0.225,0.248 0.476,0.479 0.751,0.692 0.275,0.212 0.573,0.405 0.892,0.576 0.478,0.256 1.003,0.463 1.562,0.611 0.187,0.049 0.378,0.092 0.572,0.128 0.194,0.036 0.392,0.065 0.593,0.086 0.567,0.062 1.116,0.065 1.642,0.015 C -4.165,2.76 -3.663,2.654 -3.189,2.496 -3,2.433 -2.815,2.361 -2.635,2.281 -2.275,2.122 -1.935,1.929 -1.617,1.706 -1.3,1.482 -1.004,1.227 -0.734,0.942 -0.463,0.658 -0.218,0.343 0,0 m 0.954,-7.781 h 6.815 c 0.214,0.967 0.33,1.969 0.33,3 0,3.342 -1.187,6.406 -3.162,8.794 -1.45,1.821 -3.366,3.227 -5.617,4.064 -1.558,0.61 -3.253,0.948 -5.028,0.948 -7.625,0 -13.806,-6.181 -13.806,-13.806 0,-7.625 6.181,-13.806 13.806,-13.806 5.348,0 9.982,3.042 12.275,7.488 h -7.29 c -1.352,-1.432 -3.334,-2.114 -5.61,-1.868 -3.215,0.347 -5.612,2.549 -5.622,5.186 h 9.858 z"
         inkscape:connector-curvature="0" />
    </g>
    <g
       style="display:inline"
       transform="matrix(0.35277777,0,0,-0.35277777,50.791173,10.047662)"
       id="g6933">
      <path
         id="path6935"
         style="fill:#ffffff;fill-opacity:1;fill-rule:nonzero;stroke:none"
         d="m 0,0 c -4.118,-0.001 -7.202,3.128 -7.155,7.262 0.046,4.08 3.07,7.121 7.102,7.144 C 4.124,14.429 7.141,11.423 7.154,7.224 7.167,3.015 4.183,0.002 0,0 M 13.892,8.114 C 13.649,15.073 7.97,20.636 0.934,21.042 c -7.136,0.413 -13.445,-4.38 -14.62,-11.106 -1.283,-7.339 2.754,-14.243 9.733,-15.94 3.759,-0.914 7.665,-0.989 10.625,2.343 0.005,0.005 0.009,0.009 0.013,0.014 0.001,10e-4 0.002,0.002 0.003,0.003 0.019,0.021 0.038,0.041 0.057,0.062 0.026,0.03 0.094,0.024 0.179,0.012 0.064,-0.009 0.138,-0.021 0.214,-0.025 l 0.365,-2.29 h 6.419 c 0,4.765 0.131,9.387 -0.03,13.999"
         inkscape:connector-curvature="0" />
    </g>
    <g
       style="display:inline"
       transform="matrix(0.35277777,0,0,-0.35277777,44.863273,9.907962)"
       id="g6937">
      <path
         id="path6939"
         style="fill:#ffffff;fill-opacity:1;fill-rule:nonzero;stroke:none"
         d="M 0,0 C -0.74,0.157 -1.465,0.363 -2.053,0.548 -2.5,0.66 -2.92,0.804 -3.311,0.978 -3.337,0.987 -3.354,0.994 -3.354,0.994 l 0.005,0.001 c -1.854,0.835 -3.04,2.347 -3.24,4.4 -0.248,2.547 -0.053,5.138 -0.053,7.925 h 5.694 v 5.874 l -5.704,0.702 -0.135,0.017 v 6.306 h -0.761 -5.923 V 6.873 c 0.03,-0.622 0.064,-1.244 0.106,-1.865 0.042,-0.622 0.137,-1.23 0.279,-1.822 1.388,-5.804 7.309,-10.012 13.103,-9.438 v 6.238 C 0.011,-0.009 0.006,-0.004 0,0"
         inkscape:connector-curvature="0" />
    </g>
    <g
       style="display:inline"
       transform="matrix(0.35277777,0,0,-0.35277777,27.357803,6.031712)"
       id="g6941">
      <path
         id="path6943"
         style="fill:#ffffff;fill-opacity:1;fill-rule:nonzero;stroke:none"
         d="m 0,0 v 0.078 h -0.004 c -0.1,2.013 -1.076,7.723 -8.883,8.116 l 0.01,-0.02 c -0.152,0.007 -0.302,0.02 -0.456,0.02 -3.293,0 -6.241,-1.786 -7.56,-4.358 l -0.004,0.003 c 0,0 -0.048,-0.112 -0.113,-0.113 h -0.024 c -0.08,0 -0.121,0.113 -0.121,0.113 l -0.002,-0.006 c -1.27,2.558 -4.124,4.361 -7.264,4.361 -2.829,0 -5.308,-1.434 -6.697,-3.587 l -0.106,0.007 -0.207,0.003 c -0.069,0.004 -0.09,0.052 -0.095,0.08 l -0.307,2.283 h -6.316 v -23.158 h -0.025 v -1.216 h 6.675 c 0,0 -0.001,0.462 -0.003,1.216 -0.008,3.266 -0.03,11.994 -0.03,12.226 0,0 -0.038,0.469 0.108,1.11 0.226,0.993 0.895,2.398 2.828,3.119 0.413,0.154 0.882,0.278 1.42,0.359 10e-4,0 0.003,0 0.004,0.001 V 0.636 c 0.375,0.047 0.783,0.067 1.227,0.052 1.385,-0.046 2.662,-0.856 3.21,-2.128 0.153,-0.353 0.271,-0.774 0.35,-1.256 v -14.698 h 0.11 6.381 0.153 v 14.647 c 0.203,0.71 0.633,1.617 1.556,2.345 0.018,0.013 0.035,0.027 0.053,0.041 0.022,0.017 0.044,0.034 0.067,0.051 0.341,0.251 0.744,0.477 1.222,0.662 0.005,0.002 0.009,0.003 0.013,0.005 0.011,0.004 0.019,0.006 0.029,0.01 0.664,0.236 1.472,0.373 2.461,0.34 1.384,-0.047 2.662,-0.856 3.21,-2.128 0.266,-0.618 0.445,-1.416 0.448,-2.45 l 0.002,-2.671 0.009,-9.636 v -0.014 -1.183 -0.019 H -6.645 -1.002 0 v 16.772 c 0,0 0.016,0.234 0,0.622"
         inkscape:connector-curvature="0" />
    </g>
  </g>
</svg>
